<!DOCTYPE svg PUBLIC "-//W3C//DTD SVG 1.1//EN" "http://www.w3.org/Graphics/SVG/1.1/DTD/svg11.dtd">

<!-- Uploaded to: SVG Repo, www.svgrepo.com, Transformed by: SVG Repo Mixer Tools -->
<svg height="800px" width="800px" version="1.1" id="Layer_1" xmlns="http://www.w3.org/2000/svg"
    xmlns:xlink="http://www.w3.org/1999/xlink" viewBox="0 0 496.158 496.158" xml:space="preserve"
    fill="#000000">

<g id="SVGRepo_bgCarrier" stroke-width="0" />

    <g id="SVGRepo_iconCarrier"> <path style="fill:#ededed;"
        d="M0,248.085C0,111.062,111.07,0.003,248.076,0.003c137.012,0,248.082,111.059,248.082,248.082 c0,137-111.07,248.07-248.082,248.07C111.07,496.155,0,385.085,0,248.085z" />
        <path style="fill:#F4F4F4;"
            d="M123,248.082c0-69.086,56-125.081,125.077-125.081c69.08,0,125.081,55.995,125.081,125.081 c0,69.074-56.001,125.075-125.081,125.075C179,373.157,123,317.156,123,248.082z" />
        <path style="fill:#FFFFFF;"
            d="M135,248.082c0-62.458,50.627-113.081,113.077-113.081c62.453,0,113.081,50.623,113.081,113.081 c0,62.447-50.628,113.075-113.081,113.075C185.627,361.157,135,310.529,135,248.082z" />
        <path style="fill:#E2E1E0;"
            d="M173.524,163.715c-2.672,1.354-4.705,3.386-6.059,6.058l158.92,158.918 c2.672-1.354,4.705-3.387,6.059-6.06L173.524,163.715z" />
        <path style="fill:#F4F4F4;"
            d="M159.716,177.522l158.922,158.916c3.23-2.583,6.314-5.341,9.241-8.257L167.975,168.278 C165.059,171.206,162.3,174.291,159.716,177.522z" /> </g>

</svg>